<mxfile host="app.diagrams.net" modified="2024-03-07T18:05:48.372Z" agent="Mozilla/5.0 (Windows NT 10.0; Win64; x64) AppleWebKit/537.36 (KHTML, like Gecko) Chrome/122.0.0.0 Safari/537.36" etag="B0Tp31IFjawOAM1WJjN6" version="24.0.2" type="device">
  <diagram name="Page-1" id="cbpPXX-dyT5s-ZYUZ89M">
    <mxGraphModel dx="1877" dy="-600" grid="1" gridSize="10" guides="1" tooltips="1" connect="1" arrows="1" fold="1" page="1" pageScale="1" pageWidth="827" pageHeight="1169" math="0" shadow="0">
      <root>
        <mxCell id="0" />
        <mxCell id="1" parent="0" />
        <mxCell id="shT0HkmOFGitXh8zyB-2-36" value="fs: Hiker&#xa;(park_hiker)" style="graphMlID=n4;shape=rect;rounded=1;arcsize=30;fillColor=#ffff00;strokeColor=#000000;strokeWidth=1.0;fontStyle=1" parent="1" vertex="1">
          <mxGeometry x="680" y="1657" width="94.97" height="40" as="geometry" />
        </mxCell>
        <mxCell id="shT0HkmOFGitXh8zyB-2-37" value="fs:PerceptionExperience&#xa;(SensorialPerception)" style="graphMlID=n4;shape=rect;rounded=1;arcsize=30;fillColor=#ffff00;strokeColor=#000000;strokeWidth=1.0;fontStyle=1" parent="1" vertex="1">
          <mxGeometry x="325" y="1652" width="150.99" height="50" as="geometry" />
        </mxCell>
        <mxCell id="shT0HkmOFGitXh8zyB-2-38" value="fs:Activity&#xa;(Walk)" style="graphMlID=n4;shape=rect;rounded=1;arcsize=30;fillColor=#ffff00;strokeColor=#000000;strokeWidth=1.0;fontStyle=1" parent="1" vertex="1">
          <mxGeometry x="60" y="1658" width="110" height="44" as="geometry" />
        </mxCell>
        <mxCell id="shT0HkmOFGitXh8zyB-2-41" value="fs:Pattern&#xa;(FacialShape)" style="graphMlID=n4;shape=rect;rounded=1;arcsize=30;fillColor=#ffff00;strokeColor=#000000;strokeWidth=1.0;fontStyle=1" parent="1" vertex="1">
          <mxGeometry x="330" y="1846" width="140.99" height="50" as="geometry" />
        </mxCell>
        <mxCell id="shT0HkmOFGitXh8zyB-2-48" value="" style="graphMlID=e0;rounded=0;endArrow=block;strokeColor=#000080;strokeWidth=1.0;startArrow=oval;startFill=1;endFill=1;exitX=0.5;exitY=0;exitDx=0;exitDy=0;entryX=0.5;entryY=1;entryDx=0;entryDy=0;" parent="1" source="shT0HkmOFGitXh8zyB-2-41" target="shT0HkmOFGitXh8zyB-2-37" edge="1">
          <mxGeometry relative="1" as="geometry">
            <mxPoint x="519.0100000000002" y="1779" as="sourcePoint" />
            <mxPoint x="420" y="1780" as="targetPoint" />
          </mxGeometry>
        </mxCell>
        <mxCell id="shT0HkmOFGitXh8zyB-2-49" value="&lt;font face=&quot;dialog&quot; color=&quot;#000080&quot;&gt;&lt;span style=&quot;font-size: 16px; background-color: rgb(248, 249, 250);&quot;&gt;&lt;b&gt;cbo:&lt;/b&gt;hasInfluence&lt;/span&gt;&lt;/font&gt;" style="text;html=1;align=center;verticalAlign=middle;resizable=0;points=[];labelBackgroundColor=#ffffff;" parent="shT0HkmOFGitXh8zyB-2-48" vertex="1" connectable="0">
          <mxGeometry x="-0.0174" y="2" relative="1" as="geometry">
            <mxPoint x="2" y="-3" as="offset" />
          </mxGeometry>
        </mxCell>
        <mxCell id="shT0HkmOFGitXh8zyB-2-50" value="" style="graphMlID=e0;rounded=0;endArrow=block;strokeColor=#000080;strokeWidth=1.0;startArrow=oval;startFill=1;endFill=1;entryX=1;entryY=0.5;entryDx=0;entryDy=0;exitX=0;exitY=0.5;exitDx=0;exitDy=0;" parent="1" source="shT0HkmOFGitXh8zyB-2-37" target="shT0HkmOFGitXh8zyB-2-38" edge="1">
          <mxGeometry relative="1" as="geometry">
            <mxPoint x="190" y="1590.0818375889874" as="sourcePoint" />
            <mxPoint x="341" y="1590" as="targetPoint" />
          </mxGeometry>
        </mxCell>
        <mxCell id="shT0HkmOFGitXh8zyB-2-51" value="&lt;span style=&quot;color: rgb(0 , 0 , 128) ; font-family: &amp;quot;dialog&amp;quot; ; font-size: 16px ; background-color: rgb(248 , 249 , 250)&quot;&gt;&lt;b&gt;exob&lt;/b&gt;:inActivity&lt;/span&gt;" style="text;html=1;align=center;verticalAlign=middle;resizable=0;points=[];labelBackgroundColor=#ffffff;rotation=0;" parent="shT0HkmOFGitXh8zyB-2-50" vertex="1" connectable="0">
          <mxGeometry x="-0.0174" y="2" relative="1" as="geometry">
            <mxPoint x="2" as="offset" />
          </mxGeometry>
        </mxCell>
        <mxCell id="shT0HkmOFGitXh8zyB-2-52" value="&lt;span style=&quot;color: rgb(0 , 0 , 128) ; font-family: &amp;quot;dialog&amp;quot; ; font-size: 16px ; background-color: rgb(248 , 249 , 250)&quot;&gt;&lt;b&gt;exob&lt;/b&gt;:isEngagedIn&lt;/span&gt;" style="text;html=1;align=center;verticalAlign=middle;resizable=0;points=[];labelBackgroundColor=#ffffff;" parent="1" vertex="1" connectable="0">
          <mxGeometry x="580" y="1670" as="geometry">
            <mxPoint x="-1" y="-4" as="offset" />
          </mxGeometry>
        </mxCell>
        <mxCell id="shT0HkmOFGitXh8zyB-2-54" value="" style="graphMlID=e0;rounded=0;endArrow=block;strokeColor=#000080;strokeWidth=1.0;startArrow=oval;startFill=1;endFill=1;exitX=0.673;exitY=0.968;exitDx=0;exitDy=0;exitPerimeter=0;entryX=0;entryY=0;entryDx=0;entryDy=0;" parent="1" source="shT0HkmOFGitXh8zyB-2-38" target="shT0HkmOFGitXh8zyB-2-41" edge="1">
          <mxGeometry relative="1" as="geometry">
            <mxPoint x="169" y="1702.0818375889874" as="sourcePoint" />
            <mxPoint x="210" y="1850" as="targetPoint" />
          </mxGeometry>
        </mxCell>
        <mxCell id="shT0HkmOFGitXh8zyB-2-55" value="&lt;font face=&quot;dialog&quot; color=&quot;#000080&quot;&gt;&lt;span style=&quot;font-size: 16px; background-color: rgb(248, 249, 250);&quot;&gt;&lt;b&gt;exob&lt;/b&gt;:includes&lt;/span&gt;&lt;/font&gt;" style="text;html=1;align=center;verticalAlign=middle;resizable=0;points=[];labelBackgroundColor=#ffffff;" parent="shT0HkmOFGitXh8zyB-2-54" vertex="1" connectable="0">
          <mxGeometry x="-0.0174" y="2" relative="1" as="geometry">
            <mxPoint as="offset" />
          </mxGeometry>
        </mxCell>
        <mxCell id="shT0HkmOFGitXh8zyB-2-58" value="" style="graphMlID=e0;rounded=0;endArrow=block;strokeColor=#000080;strokeWidth=1.0;startArrow=oval;startFill=1;endFill=1;exitX=1;exitY=0.5;exitDx=0;exitDy=0;entryX=0;entryY=0.5;entryDx=0;entryDy=0;" parent="1" source="shT0HkmOFGitXh8zyB-2-73" target="shT0HkmOFGitXh8zyB-2-41" edge="1">
          <mxGeometry relative="1" as="geometry">
            <mxPoint x="395.9849999999999" y="2018" as="sourcePoint" />
            <mxPoint x="440" y="1920" as="targetPoint" />
          </mxGeometry>
        </mxCell>
        <mxCell id="shT0HkmOFGitXh8zyB-2-59" value="&lt;span style=&quot;color: rgb(0 , 0 , 128) ; font-family: &amp;quot;dialog&amp;quot; ; font-size: 16px ; background-color: rgb(248 , 249 , 250)&quot;&gt;&lt;b&gt;exob&lt;/b&gt;:producesObservation&lt;/span&gt;" style="text;html=1;align=center;verticalAlign=middle;resizable=0;points=[];labelBackgroundColor=#ffffff;" parent="shT0HkmOFGitXh8zyB-2-58" vertex="1" connectable="0">
          <mxGeometry x="-0.0174" y="2" relative="1" as="geometry">
            <mxPoint x="-21" y="2" as="offset" />
          </mxGeometry>
        </mxCell>
        <mxCell id="shT0HkmOFGitXh8zyB-2-73" value="cbo:VisualStimulus&#xa;(weather-beaten tree trunkÂ )" style="graphMlID=n4;shape=rect;rounded=1;arcsize=30;fillColor=#ffff00;strokeColor=#000000;strokeWidth=1.0;fontStyle=1" parent="1" vertex="1">
          <mxGeometry x="-110" y="1852" width="170" height="44" as="geometry" />
        </mxCell>
        <mxCell id="shT0HkmOFGitXh8zyB-2-74" value="" style="graphMlID=e0;rounded=0;endArrow=block;strokeColor=#000080;strokeWidth=1.0;startArrow=oval;startFill=1;endFill=1;exitX=0;exitY=0.5;exitDx=0;exitDy=0;entryX=1;entryY=0.5;entryDx=0;entryDy=0;" parent="1" source="shT0HkmOFGitXh8zyB-2-36" target="shT0HkmOFGitXh8zyB-2-37" edge="1">
          <mxGeometry relative="1" as="geometry">
            <mxPoint x="500" y="1689.5818375889874" as="sourcePoint" />
            <mxPoint x="651" y="1689.5" as="targetPoint" />
            <Array as="points">
              <mxPoint x="600" y="1677" />
            </Array>
          </mxGeometry>
        </mxCell>
        <mxCell id="shT0HkmOFGitXh8zyB-2-76" value="dbr:Illusion" style="graphMlID=n4;shape=rect;rounded=1;arcsize=30;fillColor=#ffff00;strokeColor=#000000;strokeWidth=1.0;fontStyle=1" parent="1" vertex="1">
          <mxGeometry x="359.51" y="1510" width="81.96822102864604" height="44" as="geometry" />
        </mxCell>
        <mxCell id="shT0HkmOFGitXh8zyB-2-83" value="" style="graphMlID=e0;rounded=0;endArrow=block;strokeColor=#000080;strokeWidth=1.0;startArrow=oval;startFill=1;endFill=1;entryX=0.5;entryY=1;entryDx=0;entryDy=0;" parent="1" target="shT0HkmOFGitXh8zyB-2-76" edge="1">
          <mxGeometry relative="1" as="geometry">
            <mxPoint x="400" y="1650" as="sourcePoint" />
            <mxPoint x="491" y="1740" as="targetPoint" />
          </mxGeometry>
        </mxCell>
        <mxCell id="shT0HkmOFGitXh8zyB-2-84" value="&lt;span style=&quot;color: rgb(0 , 0 , 128) ; font-family: &amp;quot;dialog&amp;quot; ; font-size: 16px ; background-color: rgb(248 , 249 , 250)&quot;&gt;&lt;b&gt;cbo&lt;/b&gt;:creates&lt;/span&gt;" style="text;html=1;align=center;verticalAlign=middle;resizable=0;points=[];labelBackgroundColor=#ffffff;" parent="shT0HkmOFGitXh8zyB-2-83" vertex="1" connectable="0">
          <mxGeometry x="-0.0174" y="2" relative="1" as="geometry">
            <mxPoint as="offset" />
          </mxGeometry>
        </mxCell>
        <mxCell id="shT0HkmOFGitXh8zyB-2-88" value="ODPs and Ontologies Used" style="graphMlID=n0;shape=swimlane;startSize=20;fillColor=#b7b69e;strokeColor=#000000;strokeWidth=1.0;align=right;spacingRight=10;fontStyle=1" parent="1" vertex="1">
          <mxGeometry x="440" y="1260" width="320" height="80" as="geometry" />
        </mxCell>
        <mxCell id="shT0HkmOFGitXh8zyB-2-89" value="&lt;ul&gt;&lt;li style=&quot;border-color: var(--border-color);&quot;&gt;Dbpedia Ontology&lt;/li&gt;&lt;li style=&quot;border-color: var(--border-color);&quot;&gt;Experience and Observation&lt;/li&gt;&lt;/ul&gt;" style="text;html=1;strokeColor=none;fillColor=none;align=left;verticalAlign=middle;whiteSpace=wrap;rounded=0;" parent="shT0HkmOFGitXh8zyB-2-88" vertex="1">
          <mxGeometry x="-20" y="-20" width="270" height="142" as="geometry" />
        </mxCell>
        <mxCell id="SWy0_FYHw5aUgK3yBZNa-1" value="" style="graphMlID=e0;rounded=0;endArrow=block;strokeColor=#000080;strokeWidth=1.0;startArrow=oval;startFill=1;endFill=1;exitX=0.5;exitY=1;exitDx=0;exitDy=0;entryX=1;entryY=0.75;entryDx=0;entryDy=0;" parent="1" source="shT0HkmOFGitXh8zyB-2-36" target="shT0HkmOFGitXh8zyB-2-41" edge="1">
          <mxGeometry relative="1" as="geometry">
            <mxPoint x="504.5" y="1554.0818375889874" as="sourcePoint" />
            <mxPoint x="655.5" y="1554" as="targetPoint" />
          </mxGeometry>
        </mxCell>
        <mxCell id="SWy0_FYHw5aUgK3yBZNa-2" value="&lt;span style=&quot;color: rgb(0 , 0 , 128) ; font-family: &amp;quot;dialog&amp;quot; ; font-size: 16px ; background-color: rgb(248 , 249 , 250)&quot;&gt;&lt;b&gt;cbo:&lt;/b&gt;isBiasedBy&lt;/span&gt;" style="text;html=1;align=center;verticalAlign=middle;resizable=0;points=[];labelBackgroundColor=#ffffff;" parent="SWy0_FYHw5aUgK3yBZNa-1" vertex="1" connectable="0">
          <mxGeometry x="-0.0174" y="2" relative="1" as="geometry">
            <mxPoint as="offset" />
          </mxGeometry>
        </mxCell>
        <mxCell id="5oevLnAYVOPJ9P9aZ7sP-2" value="cbo:AmbiguousStimulus" style="graphMlID=n4;shape=rect;rounded=1;arcsize=30;fillColor=#ffff00;strokeColor=#000000;strokeWidth=1.0;fontStyle=1" parent="1" vertex="1">
          <mxGeometry x="-280" y="1680" width="150" height="44" as="geometry" />
        </mxCell>
        <mxCell id="5oevLnAYVOPJ9P9aZ7sP-5" value="" style="graphMlID=e0;rounded=0;endArrow=block;strokeColor=#000080;strokeWidth=1.0;startArrow=oval;startFill=1;endFill=1;entryX=0.642;entryY=0.986;entryDx=0;entryDy=0;entryPerimeter=0;exitX=0;exitY=0.5;exitDx=0;exitDy=0;" parent="1" source="shT0HkmOFGitXh8zyB-2-73" target="5oevLnAYVOPJ9P9aZ7sP-2" edge="1">
          <mxGeometry relative="1" as="geometry">
            <mxPoint x="230" y="1770.0818375889874" as="sourcePoint" />
            <mxPoint x="381" y="1770" as="targetPoint" />
          </mxGeometry>
        </mxCell>
        <mxCell id="5oevLnAYVOPJ9P9aZ7sP-6" value="&lt;span style=&quot;color: rgb(0 , 0 , 128) ; font-family: &amp;quot;dialog&amp;quot; ; font-size: 16px ; background-color: rgb(248 , 249 , 250)&quot;&gt;&lt;b&gt;rdfs&lt;/b&gt;:subClassOf&lt;/span&gt;" style="text;html=1;align=center;verticalAlign=middle;resizable=0;points=[];labelBackgroundColor=#ffffff;" parent="5oevLnAYVOPJ9P9aZ7sP-5" vertex="1" connectable="0">
          <mxGeometry x="-0.0174" y="2" relative="1" as="geometry">
            <mxPoint as="offset" />
          </mxGeometry>
        </mxCell>
        <mxCell id="aMKVIZJ7FtEOzxiTF9In-2" value="Prefixes" style="graphMlID=n0;shape=swimlane;startSize=20;fillColor=#b7b69e;strokeColor=#000000;strokeWidth=1.0;align=right;spacingRight=10;fontStyle=1" parent="1" vertex="1">
          <mxGeometry x="-386" y="1250" width="800" height="130" as="geometry">
            <mxRectangle x="-550" y="110" width="100" height="30" as="alternateBounds" />
          </mxGeometry>
        </mxCell>
        <UserObject label="&lt;br&gt;&lt;div&gt;&lt;font style=&quot;font-size: 12px;&quot;&gt;&lt;b&gt;cbo&lt;/b&gt;:https://github.com/corrado877/CognitiveBiasOntologies/blob/main/PareidoliaOntology/PareidoliaBiasOntology.owl#&lt;/font&gt;&lt;div&gt;&lt;font style=&quot;font-size: 12px;&quot;&gt;&lt;span style=&quot;&quot;&gt;&lt;b&gt;dbr&lt;/b&gt;: https://dbpedia.org/resource/&lt;/span&gt;&lt;br&gt;&lt;b style=&quot;&quot;&gt;&lt;font style=&quot;font-size: 12px;&quot;&gt;exob&lt;font style=&quot;font-size: 12px;&quot;&gt;:&lt;/font&gt;&lt;/font&gt;&lt;/b&gt;&lt;span style=&quot;border-color: var(--border-color); background-color: initial;&quot;&gt;&lt;span style=&quot;font-family: sans-serif; text-align: justify; background-color: rgb(255, 255, 255);&quot;&gt;&lt;font style=&quot;font-size: 12px;&quot;&gt;http://modellingdh.github.io/ont/odp/term/&lt;/font&gt;&lt;/span&gt;&lt;/span&gt;&lt;/font&gt;&lt;/div&gt;&lt;div&gt;&lt;div style=&quot;text-align: justify;&quot;&gt;&lt;b style=&quot;text-align: left;&quot;&gt;fsyn&lt;/b&gt;&lt;span style=&quot;text-align: left;&quot;&gt;:https://w3id.org/framester/data/framestersyn/&lt;/span&gt;&lt;span style=&quot;&quot;&gt;&lt;font style=&quot;font-size: 12px;&quot; face=&quot;sans-serif&quot;&gt;&lt;br&gt;&lt;/font&gt;&lt;/span&gt;&lt;/div&gt;&lt;font style=&quot;font-size: 12px;&quot;&gt;&lt;span style=&quot;border-color: var(--border-color); background-color: initial;&quot;&gt;&lt;b style=&quot;border-color: var(--border-color);&quot;&gt;fs&lt;/b&gt;&lt;span style=&quot;&quot;&gt;:https://w3id.org/framester/data/framestercore/&lt;/span&gt;&lt;/span&gt;&lt;/font&gt;&lt;/div&gt;&lt;div&gt;&lt;font style=&quot;font-size: 12px;&quot;&gt;&lt;b style=&quot;&quot;&gt;rdfs&lt;/b&gt;&lt;span style=&quot;&quot;&gt;:http://www.w3.org/2000/01/rdf-schema#&lt;/span&gt;&lt;/font&gt;&lt;/div&gt;&lt;/div&gt;" link="http://www.w3.org/2000/01/rdf-schema#" id="aMKVIZJ7FtEOzxiTF9In-3">
          <mxCell style="text;whiteSpace=wrap;html=1;" parent="aMKVIZJ7FtEOzxiTF9In-2" vertex="1">
            <mxGeometry x="10" y="10" width="640" height="170" as="geometry" />
          </mxCell>
        </UserObject>
        <mxCell id="aMKVIZJ7FtEOzxiTF9In-4" value="fs:People" style="graphMlID=n4;shape=rect;rounded=1;arcsize=30;fillColor=#ffff00;strokeColor=#000000;strokeWidth=1.0;fontStyle=1" parent="1" vertex="1">
          <mxGeometry x="730" y="1520" width="81.96822102864604" height="44" as="geometry" />
        </mxCell>
        <mxCell id="aMKVIZJ7FtEOzxiTF9In-5" value="" style="graphMlID=e0;rounded=0;endArrow=block;strokeColor=#000080;strokeWidth=1.0;startArrow=oval;startFill=1;endFill=1;exitX=0.5;exitY=0;exitDx=0;exitDy=0;entryX=0.5;entryY=1;entryDx=0;entryDy=0;" parent="1" source="shT0HkmOFGitXh8zyB-2-36" target="aMKVIZJ7FtEOzxiTF9In-4" edge="1">
          <mxGeometry relative="1" as="geometry">
            <mxPoint x="690" y="1610.0818375889874" as="sourcePoint" />
            <mxPoint x="841" y="1610" as="targetPoint" />
          </mxGeometry>
        </mxCell>
        <mxCell id="aMKVIZJ7FtEOzxiTF9In-6" value="&lt;span style=&quot;color: rgb(0 , 0 , 128) ; font-family: &amp;quot;dialog&amp;quot; ; font-size: 16px ; background-color: rgb(248 , 249 , 250)&quot;&gt;&lt;b&gt;rdfs&lt;/b&gt;:subClassOf&lt;/span&gt;" style="text;html=1;align=center;verticalAlign=middle;resizable=0;points=[];labelBackgroundColor=#ffffff;" parent="aMKVIZJ7FtEOzxiTF9In-5" vertex="1" connectable="0">
          <mxGeometry x="-0.0174" y="2" relative="1" as="geometry">
            <mxPoint as="offset" />
          </mxGeometry>
        </mxCell>
        <mxCell id="aMKVIZJ7FtEOzxiTF9In-7" value="" style="graphMlID=e0;rounded=0;endArrow=block;strokeColor=#000080;strokeWidth=1.0;startArrow=oval;startFill=1;endFill=1;entryX=1;entryY=0.5;entryDx=0;entryDy=0;" parent="1" source="shT0HkmOFGitXh8zyB-2-38" target="5oevLnAYVOPJ9P9aZ7sP-2" edge="1">
          <mxGeometry relative="1" as="geometry">
            <mxPoint x="230" y="1670.0818375889874" as="sourcePoint" />
            <mxPoint x="381" y="1670" as="targetPoint" />
          </mxGeometry>
        </mxCell>
        <mxCell id="aMKVIZJ7FtEOzxiTF9In-8" value="&lt;span style=&quot;color: rgb(0 , 0 , 128) ; font-family: &amp;quot;dialog&amp;quot; ; font-size: 16px ; background-color: rgb(248 , 249 , 250)&quot;&gt;&lt;b&gt;cbo&lt;/b&gt;:involves&lt;/span&gt;" style="text;html=1;align=center;verticalAlign=middle;resizable=0;points=[];labelBackgroundColor=#ffffff;" parent="aMKVIZJ7FtEOzxiTF9In-7" vertex="1" connectable="0">
          <mxGeometry x="-0.0174" y="2" relative="1" as="geometry">
            <mxPoint as="offset" />
          </mxGeometry>
        </mxCell>
      </root>
    </mxGraphModel>
  </diagram>
</mxfile>
